<?xml version="1.0" encoding="UTF-8"?>
<svg id="Layer_1" data-name="Layer 1" xmlns="http://www.w3.org/2000/svg" viewBox="0 0 183.92 179.19">
  <defs>
    <style>
      .cls-1 {
        fill: #13b4bb;
      }
    </style>
  </defs>
  <path class="cls-1" d="m142.3,80.57c-1.88-.02-3.78.28-5.55.89-2.22.75-4.23,1.98-5.77,3.65-3.25,3.53-4.52,8.59-6.48,12.89-1.6,3.49-3.2,6.99-4.81,10.49-3.61,7.87-7.22,15.74-10.83,23.61l-9.57-20.88,9.39-20.26,2.02-4.35c-2.81-.96-5.38-2.42-7.61-4.28-.89,1.94-1.78,3.87-2.67,5.81-1.09,2.39-2.19,4.78-3.28,7.17-.86,1.87-1.71,3.74-2.57,5.61l-5.53-12.05c-.64-1.39-.4-3.05.67-4.14.47-.47,1.1-.94,1.99-1.38.32-.16.5-.56.35-.88-.21-.43-.93-.86-3.09-.64,0,0-3.93.41-7.9-.59,0,0-6.95-1.53-11.58.6-2.26,1.04-3.72,3.18-3.96,5.65-.08.8,0,1.63.43,2.2.2.26.54.38.86.29,0,0,.01,0,.02,0,.29-.09.5-.34.56-.63.17-.95.52-1.89,1.02-2.72.01-.01.02-.02.03-.03,1.16-1.91,3.34-2.93,5.57-2.84,1.83.08,4.48.57,6.7,2.48,1.39,1.2,1.78,3.24,2.45,4.94.71,1.79,1.49,3.56,2.3,5.3l5.63,12.13c-2.84,6.2-5.68,12.41-8.52,18.6l-26.78-58.42c-.86-1.87-.54-4.12.91-5.59.62-.64,1.49-1.27,2.68-1.86.43-.22.68-.75.46-1.18-.28-.58-1.25-1.17-4.18-.88,0,0-.13.01-.37.03-1.29.09-5.78.31-10.31-.83,0,0-2.65-.58-6.08-.69-3.01-.1-6.63.17-9.56,1.51-3.05,1.4-5.03,4.29-5.36,7.63-.11,1.09,0,2.2.58,2.98.26.35.73.5,1.15.38.01,0,.02,0,.03-.01.39-.12.68-.45.75-.84.24-1.29.71-2.55,1.39-3.67,0-.02.02-.03.03-.05,1.58-2.57,4.51-3.96,7.52-3.83.19,0,.38.02.58.03,2.44.17,5.7.93,8.46,3.32,1.25,1.08,1.9,2.66,2.46,4.27.29.81.55,1.63.85,2.4.95,2.42,2.01,4.81,3.11,7.18l31.67,68.31,13.25-28.58,13.09,28.22c0-.16.2-.43.27-.58,3.46-7.45,6.91-14.9,10.36-22.35,5.22-11.25,10.84-22.4,15.42-33.93,1.53-3.85,4.22-6.1,8.38-6.4"/>
  <path class="cls-1" d="m91.95,179.19c-44.83,0-81.3-36.47-81.3-81.3,0-16.64,4.99-32.64,14.44-46.27,9.23-13.31,22.05-23.48,37.06-29.4l1.27,3.23c-29.95,11.81-49.3,40.24-49.3,72.44,0,42.92,34.92,77.83,77.83,77.83s77.83-34.92,77.83-77.83c0-32.56-20.54-61.95-51.1-73.12l1.19-3.26c31.93,11.67,53.38,42.37,53.38,76.38,0,44.83-36.47,81.3-81.3,81.3Z"/>
  <path class="cls-1" d="m91.95,166.15c-37.64,0-68.27-30.62-68.27-68.27,0-13.17,3.76-25.95,10.86-36.96,6.92-10.73,16.66-19.28,28.17-24.74,1.88-.89,3.82-1.71,5.77-2.42l1.19,3.26c-1.85.68-3.69,1.45-5.48,2.3-22.51,10.68-37.05,33.67-37.05,58.57,0,35.73,29.07,64.8,64.8,64.8s64.8-29.07,64.8-64.8c0-24.35-13.45-46.42-35.1-57.61-2.4-1.24-4.9-2.34-7.43-3.26l1.19-3.26c2.67.98,5.3,2.13,7.83,3.44,22.81,11.78,36.97,35.04,36.97,60.69,0,37.64-30.62,68.27-68.27,68.27Z"/>
  <path class="cls-1" d="m91.95,152.86c-30.32,0-54.98-24.66-54.98-54.98s24.66-54.98,54.98-54.98,54.98,24.66,54.98,54.98-24.66,54.98-54.98,54.98Zm0-106.49c-28.4,0-51.51,23.11-51.51,51.51s23.11,51.51,51.51,51.51,51.51-23.11,51.51-51.51-23.11-51.51-51.51-51.51Z"/>
  <g>
    <path class="cls-1" d="m110.44,53.64c-10.33,0-18.69,8.37-18.69,18.69s8.36,18.69,18.69,18.69,18.69-8.36,18.69-18.69-8.37-18.69-18.69-18.69Zm0,30.69c-6.63,0-12-5.37-12-12s5.37-12,12-12,12,5.37,12,12-5.37,12-12,12Z"/>
    <circle class="cls-1" cx="110.44" cy="72.33" r="8.21"/>
  </g>
  <g>
    <path class="cls-1" d="m19.35,78.53c-10.69,0-19.35,8.67-19.35,19.35s8.66,19.35,19.35,19.35,19.35-8.66,19.35-19.35-8.67-19.35-19.35-19.35Zm0,31.77c-6.86,0-12.42-5.56-12.42-12.42s5.56-12.42,12.42-12.42,12.42,5.56,12.42,12.42-5.56,12.42-12.42,12.42Z"/>
    <circle class="cls-1" cx="19.35" cy="97.89" r="5.39"/>
  </g>
  <g>
    <path class="cls-1" d="m165.51,79.48c-10.17,0-18.41,8.24-18.41,18.41s8.24,18.41,18.41,18.41,18.41-8.24,18.41-18.41-8.24-18.41-18.41-18.41Zm0,30.22c-6.53,0-11.82-5.29-11.82-11.82s5.29-11.82,11.82-11.82,11.82,5.29,11.82,11.82-5.29,11.82-11.82,11.82Z"/>
    <circle class="cls-1" cx="165.51" cy="97.89" r="5.13"/>
  </g>
  <g>
    <path class="cls-1" d="m112.71,10.78c-1.3-.72-2.84-1.04-4.31-.78-.5.08-1.02.06-1.52-.04-1.39-.29-2.61-1.27-3.99-1.67-1.11-.32-2.27-.5-3.43-.48-3.01.05-5.63,1.58-7.48,3.9-.01.02-.03.04-.03.07,0-.03,0-.05-.03-.07-1.86-2.33-4.47-3.85-7.48-3.9-1.16-.02-2.31.17-3.43.48-1.39.4-2.61,1.38-3.99,1.67-.5.1-1.02.12-1.53.04-1.47-.25-3.01.06-4.3.78-2.98,1.65-5.24,5.68-4.88,9.09.18,1.75,1.04,3.41,2.17,4.74.13.14.25.29.41.39.17.11.35.18.53.25,1.89.72,3.41,1.93,4.95,3.21.53.44,1.21.64,1.89.57,1.87-.2,5.62-.02,5.62-.41-.05-3.41-1.09-5.12-1.91-5.95-.95-.96-1.71-2.11-2.04-3.43-1.6-6.31,4.04-8.4,4.04-8.4h.06c-.22,0-.54.86-.58,1.02-.16.48-.19,1.01-.25,1.51-.13,1.12-.21,2.24-.21,3.37,0,.48.02.95.15,1.41.17.6.6,1.12,1.16,1.41,0,0,3.13,1.16,2.93,9.01,0,.06.04.11.11.11h1.47c.42,0,1.82.24,1.87-.34.29-3.62-.65-8.02-3.27-10.65-.86-.86-1.44-2-1.42-3.22.01-.96.32-2.08,1.33-3.18.03-.04.1-.05.15-.03,4.63,1.61,5.1,7.09,5.1,7.16l.32,10.69c0,.07.07.12.13.11h1.82c.07.01.14-.04.14-.11,0,0,.32-10.69.32-10.69,0-.06.48-5.54,5.11-7.16.05-.02.11,0,.15.03,1,1.11,1.31,2.22,1.32,3.18.02,1.22-.55,2.36-1.42,3.22-2.65,2.66-3.55,7.08-3.27,10.74,0,.07.01.14.06.19.06.05.14.06.22.06h3.06c.06,0,.11-.05.11-.11-.21-7.85,2.92-9.01,2.92-9.01,1.19-.62,1.35-1.95,1.32-3.16-.03-1.01-.1-2.02-.22-3.03-.1-.9-.15-1.85-.83-2.53h.06s5.64,2.09,4.04,8.4c-.34,1.32-1.09,2.47-2.05,3.43-.82.83-1.86,2.54-1.91,5.95,0,.39,3.76.2,5.63.41.68.08,1.36-.13,1.89-.57.86-.71,1.72-1.57,2.71-2.1.94-.5,1.99-.81,2.84-1.49,1.44-1.16,2.33-3.19,2.52-5,.36-3.41-1.9-7.44-4.88-9.09Zm-35.52,16.06c-2.37-1.29-4.72-3.1-6.29-5.32-.17-.23-.32-.48-.44-.74-.95-2.1,0-4.96,1.63-6.45.55-.5,1.19-.91,1.87-1.21.12-.05.83-.22.88-.32-2.84,5.85.65,9.58.65,9.58,2.11,2.92,1.7,4.46,1.7,4.46Zm36.51-7.15c-.03.36-.1.71-.24,1.04,0,.03-.02.04-.03.07-.1.21-.22.4-.35.59-.77,1.12-1.79,2.12-2.82,3-.51.44-1.06.85-1.61,1.24-.18.12-1.96,1.17-1.96,1.21,0,0-.41-1.54,1.7-4.46,0,0,3.48-3.73.66-9.56.11.09.67.22.76.26.62.27,1.2.62,1.72,1.04,1.67,1.37,2.35,3.45,2.16,5.57Z"/>
    <rect class="cls-1" x="74.26" y="35.39" width="35.36" height="4.72" rx="1.85" ry="1.85"/>
    <rect class="cls-1" x="74.26" y="29.99" width="35.36" height="4.25" rx="1.66" ry="1.66"/>
    <circle class="cls-1" cx="91.95" cy="3.53" r="3.53"/>
  </g>
</svg>